<svg id="katman_3" data-name="katman 3" xmlns="http://www.w3.org/2000/svg" viewBox="0 0 118.6 121.1"><defs><style>.cls-1{fill:#318cd3;}.cls-2{fill:#55007c;}.cls-3{fill:#8612ad;}.cls-4{fill:#70bde8;}</style></defs><path class="cls-1" d="M369.5,279.2a16.8,16.8,0,0,1,0,24.8l-7.3,6.5-41-36.3a16.8,16.8,0,0,1,0-24.8l7.3-6.5Z" transform="translate(-315.7 -189.5)"/><path class="cls-2" d="M380.5,220.8a16.8,16.8,0,0,1,0-24.8l7.3-6.5,41,36.3a16.8,16.8,0,0,1,0,24.8l-7.3,6.5Z" transform="translate(-315.7 -189.5)"/><path class="cls-3" d="M380.5,256.1a16.8,16.8,0,0,0,0,24.8l7.3,6.5,41-36.3a16.9,16.9,0,0,0,0-24.9l-7.3-6.4Z" transform="translate(-315.7 -189.5)"/><path class="cls-4" d="M369.5,243.9a16.8,16.8,0,0,0,0-24.8l-7.3-6.5-41,36.3a16.9,16.9,0,0,0,0,24.9l7.3,6.4Z" transform="translate(-315.7 -189.5)"/></svg>